<svg width="512" height="512" fill="none" xmlns="http://www.w3.org/2000/svg"><path fill="#000" d="M0 0h512v512H0z"/><path d="M88 90l312 43-353 59L504 66 275 478 124 28l328 262L71 472 12 73l92 405 354 5L207 20l277 23L21 411l446-209-292 299L32 28l442 338-334-133 364-69-141 256-29-354L88 301l386 131L189 38 38 441l458 31-96-406" stroke="#292C36" stroke-width="3"/><path d="M338.5 371h-154V170.6h78c16.7 0 30.3 3 40.9 8.9a62.2 62.2 0 0124.2 23.6 65 65 0 018.6 33.1c0 15-4.6 28.4-13.8 40.3a65.4 65.4 0 01-34.9 23.4l51 71.1zm-136-189.8L281 290.6a55.1 55.1 0 0032-19.2 53.4 53.4 0 0012.6-35.2 55 55 0 00-7.7-28.8 51.1 51.1 0 00-22-19.9 74.3 74.3 0 00-33-6.3h-60.2zm-7.4 7v103.3h74l-74-103.4zm0 172.1h123.2l-42-58.4-9 .3h-72.2v58.1z" fill="#fff"/></svg>